<svg xmlns="http://www.w3.org/2000/svg" viewBox="0 0 1200 630" width="1200" height="630"><rect width="1200" height="630" fill="#fbfafd"/>
  <g transform="translate(60,80)">
    <text font-family="ui-sans-serif, system-ui, sans-serif" font-size="32" font-weight="700" fill="#0c0a1a">3 landing templates</text>
    <text y="40" font-family="ui-sans-serif, system-ui, sans-serif" font-size="20" fill="#6b6680">Minimal · Bold · Magazine — HTML &amp; JSX</text>
  </g>
  <g transform="translate(60,180)">
    <rect width="280" height="380" rx="12" fill="white" stroke="#ece9f5"/>
    <rect x="20" y="20" width="160" height="20" rx="4" fill="#0c0a1a"/>
    <rect x="20" y="60" width="240" height="40" rx="6" fill="#fbfafd" stroke="#ece9f5"/>
    <rect x="20" y="120" width="240" height="20" rx="4" fill="#6b6680"/>
    <rect x="20" y="180" width="240" height="120" rx="8" fill="#fbfafd" stroke="#ece9f5"/>
  </g>
  <g transform="translate(380,180)">
    <rect width="280" height="380" rx="12" fill="#0c0a1a"/>
    <rect x="20" y="20" width="80" height="14" rx="4" fill="#a5b4fc"/>
    <rect x="20" y="60" width="240" height="60" rx="6" fill="#4f46e5"/>
    <rect x="20" y="140" width="180" height="14" rx="4" fill="#a3a3b8"/>
    <rect x="20" y="180" width="220" height="100" rx="8" fill="#1f1f2e"/>
  </g>
  <g transform="translate(700,180)">
    <rect width="280" height="380" rx="12" fill="white" stroke="#ece9f5"/>
    <rect x="0" y="0" width="280" height="3" fill="#0c0a1a"/>
    <line x1="20" y1="50" x2="260" y2="50" stroke="#ece9f5"/>
    <rect x="20" y="80" width="240" height="60" rx="6" fill="#0c0a1a"/>
    <rect x="20" y="160" width="240" height="20" rx="4" fill="#6b6680"/>
    <rect x="20" y="220" width="220" height="60" rx="4" fill="#fbfafd" stroke="#ece9f5"/>
  </g>
<text x="60" y="594" font-family="ui-sans-serif, system-ui, sans-serif" font-size="20" font-weight="500" fill="#6b6680">asset-forge.dev · asset bundle · MIT + $29</text></svg>